<svg width="85" height="85" viewBox="0 0 85 85" fill="none" xmlns="http://www.w3.org/2000/svg">
<path d="M35.4167 63.75C36.356 63.75 37.2568 63.3768 37.921 62.7126C38.5852 62.0485 38.9583 61.1476 38.9583 60.2083V38.9583C38.9583 38.019 38.5852 37.1182 37.921 36.454C37.2568 35.7898 36.356 35.4166 35.4167 35.4166C34.4774 35.4166 33.5765 35.7898 32.9123 36.454C32.2481 37.1182 31.875 38.019 31.875 38.9583V60.2083C31.875 61.1476 32.2481 62.0485 32.9123 62.7126C33.5765 63.3768 34.4774 63.75 35.4167 63.75ZM70.8333 21.25H56.6667V17.7083C56.6667 14.8904 55.5473 12.1879 53.5547 10.1953C51.5621 8.20273 48.8596 7.08331 46.0417 7.08331H38.9583C36.1404 7.08331 33.4379 8.20273 31.4453 10.1953C29.4527 12.1879 28.3333 14.8904 28.3333 17.7083V21.25H14.1667C13.2274 21.25 12.3265 21.6231 11.6623 22.2873C10.9981 22.9515 10.625 23.8523 10.625 24.7916C10.625 25.731 10.9981 26.6318 11.6623 27.296C12.3265 27.9602 13.2274 28.3333 14.1667 28.3333H17.7083V67.2916C17.7083 70.1096 18.8278 72.8121 20.8203 74.8046C22.8129 76.7972 25.5154 77.9166 28.3333 77.9166H56.6667C59.4846 77.9166 62.1871 76.7972 64.1797 74.8046C66.1723 72.8121 67.2917 70.1096 67.2917 67.2916V28.3333H70.8333C71.7726 28.3333 72.6735 27.9602 73.3377 27.296C74.0019 26.6318 74.375 25.731 74.375 24.7916C74.375 23.8523 74.0019 22.9515 73.3377 22.2873C72.6735 21.6231 71.7726 21.25 70.8333 21.25ZM35.4167 17.7083C35.4167 16.769 35.7898 15.8682 36.454 15.204C37.1182 14.5398 38.019 14.1666 38.9583 14.1666H46.0417C46.981 14.1666 47.8818 14.5398 48.546 15.204C49.2102 15.8682 49.5833 16.769 49.5833 17.7083V21.25H35.4167V17.7083ZM60.2083 67.2916C60.2083 68.2309 59.8352 69.1318 59.171 69.796C58.5068 70.4602 57.606 70.8333 56.6667 70.8333H28.3333C27.394 70.8333 26.4932 70.4602 25.829 69.796C25.1648 69.1318 24.7917 68.2309 24.7917 67.2916V28.3333H60.2083V67.2916ZM49.5833 63.75C50.5226 63.75 51.4235 63.3768 52.0877 62.7126C52.7519 62.0485 53.125 61.1476 53.125 60.2083V38.9583C53.125 38.019 52.7519 37.1182 52.0877 36.454C51.4235 35.7898 50.5226 35.4166 49.5833 35.4166C48.644 35.4166 47.7432 35.7898 47.079 36.454C46.4148 37.1182 46.0417 38.019 46.0417 38.9583V60.2083C46.0417 61.1476 46.4148 62.0485 47.079 62.7126C47.7432 63.3768 48.644 63.75 49.5833 63.75Z" fill="#B69A80"/>
</svg>
