<svg width="80" height="80" viewBox="0 0 80 80" fill="none" xmlns="http://www.w3.org/2000/svg">
<path d="M36.6667 30H50C50.884 30 51.7319 29.6488 52.357 29.0237C52.9821 28.3985 53.3333 27.5507 53.3333 26.6666C53.3333 25.7826 52.9821 24.9347 52.357 24.3096C51.7319 23.6845 50.884 23.3333 50 23.3333H43.3333V20C43.3333 19.1159 42.9821 18.2681 42.357 17.643C41.7319 17.0178 40.884 16.6666 40 16.6666C39.1159 16.6666 38.2681 17.0178 37.643 17.643C37.0179 18.2681 36.6667 19.1159 36.6667 20V23.3333C34.0145 23.3333 31.471 24.3869 29.5956 26.2622C27.7202 28.1376 26.6667 30.6811 26.6667 33.3333C26.6667 35.9855 27.7202 38.529 29.5956 40.4044C31.471 42.2797 34.0145 43.3333 36.6667 43.3333H43.3333C44.2174 43.3333 45.0652 43.6845 45.6903 44.3096C46.3155 44.9347 46.6667 45.7826 46.6667 46.6666C46.6667 47.5507 46.3155 48.3985 45.6903 49.0237C45.0652 49.6488 44.2174 50 43.3333 50H30C29.1159 50 28.2681 50.3512 27.643 50.9763C27.0179 51.6014 26.6667 52.4493 26.6667 53.3333C26.6667 54.2174 27.0179 55.0652 27.643 55.6903C28.2681 56.3155 29.1159 56.6666 30 56.6666H36.6667V60C36.6667 60.884 37.0179 61.7319 37.643 62.357C38.2681 62.9821 39.1159 63.3333 40 63.3333C40.884 63.3333 41.7319 62.9821 42.357 62.357C42.9821 61.7319 43.3333 60.884 43.3333 60V56.6666C45.9855 56.6666 48.529 55.6131 50.4044 53.7377C52.2798 51.8624 53.3333 49.3188 53.3333 46.6666C53.3333 44.0145 52.2798 41.4709 50.4044 39.5956C48.529 37.7202 45.9855 36.6666 43.3333 36.6666H36.6667C35.7826 36.6666 34.9348 36.3155 34.3096 35.6903C33.6845 35.0652 33.3333 34.2174 33.3333 33.3333C33.3333 32.4493 33.6845 31.6014 34.3096 30.9763C34.9348 30.3512 35.7826 30 36.6667 30ZM40 3.33331C32.748 3.33331 25.6589 5.48377 19.6291 9.51276C13.5993 13.5417 8.89963 19.2683 6.12441 25.9683C3.3492 32.6682 2.62308 40.0407 4.03787 47.1533C5.45266 54.2659 8.94482 60.7993 14.0727 65.9272C19.2007 71.0552 25.734 74.5473 32.8467 75.9621C39.9593 77.3769 47.3318 76.6508 54.0317 73.8756C60.7317 71.1003 66.4582 66.4007 70.4872 60.3709C74.5162 54.3411 76.6667 47.252 76.6667 40C76.6667 30.2754 72.8036 20.9491 65.9272 14.0727C59.0509 7.1964 49.7246 3.33331 40 3.33331ZM40 70C34.0666 70 28.2664 68.2405 23.3329 64.9441C18.3994 61.6476 14.5542 56.9623 12.2836 51.4805C10.013 45.9987 9.41888 39.9667 10.5764 34.1473C11.734 28.3278 14.5912 22.9824 18.7868 18.7868C22.9824 14.5912 28.3279 11.734 34.1473 10.5764C39.9667 9.41886 45.9987 10.013 51.4805 12.2836C56.9623 14.5542 61.6476 18.3994 64.9441 23.3329C68.2405 28.2663 70 34.0665 70 40C70 47.9565 66.8393 55.5871 61.2132 61.2132C55.5871 66.8393 47.9565 70 40 70Z" fill="#B69A80"/>
</svg>
