<svg width="78" height="78" viewBox="0 0 78 78" fill="none" xmlns="http://www.w3.org/2000/svg">
<path d="M64.9707 6.50647C64.1088 6.50647 63.2822 6.84888 62.6727 7.45837C62.0632 8.06787 61.7207 8.89452 61.7207 9.75647V11.8267C58.9796 15.2251 55.5153 17.9696 51.5798 19.8603C47.6443 21.751 43.3368 22.7404 38.9707 22.7565H19.4707C16.8857 22.7591 14.4072 23.7871 12.5793 25.615C10.7514 27.4429 9.72333 29.9214 9.72075 32.5065V39.0065C9.72333 41.5915 10.7514 44.07 12.5793 45.8979C14.4072 47.7258 16.8857 48.7539 19.4707 48.7565H21.0437L13.234 66.976C13.022 67.4705 12.9361 68.01 12.984 68.5459C13.032 69.0819 13.2122 69.5976 13.5086 70.0466C13.805 70.4958 14.2082 70.8642 14.6822 71.119C15.1561 71.3738 15.6859 71.507 16.224 71.5065H29.224C29.8595 71.5062 30.4809 71.3194 31.0112 70.9693C31.5416 70.6192 31.9575 70.1212 32.2075 69.537L41.0605 48.88C45.0599 49.1737 48.9566 50.2842 52.5101 52.1428C56.0635 54.0014 59.1983 56.5687 61.7207 59.6862V61.7565C61.7207 62.6184 62.0632 63.4451 62.6727 64.0546C63.2822 64.6641 64.1088 65.0065 64.9707 65.0065C65.8327 65.0065 66.6594 64.6641 67.2688 64.0546C67.8783 63.4451 68.2207 62.6184 68.2207 61.7565V9.75647C68.2207 8.89452 67.8783 8.06787 67.2688 7.45837C66.6594 6.84888 65.8327 6.50647 64.9707 6.50647ZM19.4707 42.2565C18.6088 42.2565 17.7821 41.9141 17.1727 41.3046C16.5632 40.6951 16.2207 39.8684 16.2207 39.0065V32.5065C16.2207 31.6445 16.5632 30.8179 17.1727 30.2084C17.7821 29.5989 18.6088 29.2565 19.4707 29.2565H22.7207V42.2565H19.4707ZM27.079 65.0065H21.151L28.1125 48.7565H34.0437L27.079 65.0065ZM61.724 50.453C55.3159 45.1736 47.2767 42.2772 38.974 42.2565H29.224V29.2565H38.974C47.2767 29.2355 55.3158 26.3391 61.724 21.06V50.453Z" fill="#B69A80"/>
</svg>
