<svg width="90" height="90" viewBox="0 0 90 90" fill="none" xmlns="http://www.w3.org/2000/svg">
<path d="M52.5 41.25H48.75V37.5C48.75 36.5054 48.3549 35.5516 47.6517 34.8484C46.9484 34.1451 45.9946 33.75 45 33.75C44.0054 33.75 43.0516 34.1451 42.3484 34.8484C41.6451 35.5516 41.25 36.5054 41.25 37.5V41.25H37.5C36.5054 41.25 35.5516 41.6451 34.8484 42.3484C34.1451 43.0516 33.75 44.0054 33.75 45C33.75 45.9946 34.1451 46.9484 34.8484 47.6517C35.5516 48.3549 36.5054 48.75 37.5 48.75H41.25V52.5C41.25 53.4946 41.6451 54.4484 42.3484 55.1517C43.0516 55.8549 44.0054 56.25 45 56.25C45.9946 56.25 46.9484 55.8549 47.6517 55.1517C48.3549 54.4484 48.75 53.4946 48.75 52.5V48.75H52.5C53.4946 48.75 54.4484 48.3549 55.1517 47.6517C55.8549 46.9484 56.25 45.9946 56.25 45C56.25 44.0054 55.8549 43.0516 55.1517 42.3484C54.4484 41.6451 53.4946 41.25 52.5 41.25ZM75.6 18.75C71.6014 14.7926 66.32 12.3948 60.7089 11.9891C55.0977 11.5834 49.5263 13.1965 45 16.5375C40.2287 12.9886 34.29 11.3794 28.3797 12.0339C22.4694 12.6884 17.0267 15.5579 13.1474 20.0647C9.26815 24.5715 7.24059 30.3807 7.47301 36.3226C7.70543 42.2644 10.1806 47.8975 14.4 52.0875L36.9 74.775C39.0094 76.8818 41.8687 78.0651 44.85 78.0651C47.8313 78.0651 50.6906 76.8818 52.8 74.775L75.3 52.0875C77.516 49.9224 79.2823 47.3408 80.4973 44.4909C81.7123 41.641 82.3522 38.5791 82.3801 35.4811C82.4079 32.3832 81.8233 29.3102 80.6597 26.4389C79.4962 23.5676 77.7767 20.9546 75.6 18.75ZM70.3125 46.725L47.8125 69.225C47.4639 69.5765 47.0491 69.8555 46.5922 70.0458C46.1352 70.2362 45.645 70.3342 45.15 70.3342C44.655 70.3342 44.1648 70.2362 43.7078 70.0458C43.2509 69.8555 42.8361 69.5765 42.4875 69.225L19.9875 46.725C17.0466 43.7188 15.3998 39.6805 15.3998 35.475C15.3998 31.2695 17.0466 27.2312 19.9875 24.225C22.9843 21.2662 27.0261 19.6071 31.2375 19.6071C35.4489 19.6071 39.4907 21.2662 42.4875 24.225C42.8361 24.5765 43.2509 24.8555 43.7078 25.0459C44.1648 25.2362 44.655 25.3343 45.15 25.3343C45.645 25.3343 46.1352 25.2362 46.5922 25.0459C47.0491 24.8555 47.4639 24.5765 47.8125 24.225C50.8093 21.2662 54.8512 19.6071 59.0625 19.6071C63.2739 19.6071 67.3157 21.2662 70.3125 24.225C73.276 27.2346 74.937 31.2888 74.937 35.5125C74.937 39.7362 73.276 43.7905 70.3125 46.8V46.725Z" fill="#B69A80"/>
</svg>
