<svg width="96" height="96" viewBox="0 0 96 96" fill="none" xmlns="http://www.w3.org/2000/svg">
<g filter="url(#filter0_d_28_2)">
<circle cx="48" cy="44" r="44" fill="#D9D9D9"/>
</g>
<circle cx="48" cy="44" r="38.5" stroke="#1B344B" stroke-width="3"/>
<path d="M66.75 20.125H48C47.1715 20.1258 46.3771 20.4553 45.7912 21.0412C45.2053 21.6271 44.8758 22.4215 44.875 23.25V38.875H29.25C28.4215 38.8758 27.6271 39.2053 27.0412 39.7912C26.4553 40.3771 26.1258 41.1715 26.125 42V63.875H69.875V23.25C69.8742 22.4215 69.5447 21.6271 68.9588 21.0412C68.3729 20.4553 67.5786 20.1258 66.75 20.125ZM37.0625 60.75V49.8125H43.3125V60.75H37.0625ZM66.75 60.75H46.4375V48.25C46.4375 47.8356 46.2729 47.4382 45.9799 47.1451C45.6868 46.8521 45.2894 46.6875 44.875 46.6875H35.5C35.0856 46.6875 34.6882 46.8521 34.3951 47.1451C34.1021 47.4382 33.9375 47.8356 33.9375 48.25V60.75H29.25V42H48V23.25H66.75V60.75Z" fill="#1B344B"/>
<path d="M51.125 29.5H54.25V32.625H51.125V29.5ZM60.5 29.5H63.625V32.625H60.5V29.5ZM51.125 38.875H54.25V42H51.125V38.875ZM60.5 38.875H63.625V42H60.5V38.875ZM51.125 48.25H54.25V51.375H51.125V48.25ZM60.5 48.25H63.625V51.375H60.5V48.25ZM37.0625 35.75H33.9375C33.94 33.6788 34.7639 31.6931 36.2285 30.2285C37.6931 28.7639 39.6788 27.94 41.75 27.9375V31.0625C40.5072 31.0637 39.3156 31.558 38.4368 32.4368C37.558 33.3156 37.0637 34.5072 37.0625 35.75ZM29.25 35.75H26.125C26.1295 31.6074 27.7772 27.6358 30.7065 24.7065C33.6358 21.7772 37.6074 20.1295 41.75 20.125V23.25C38.4361 23.2541 35.259 24.5724 32.9157 26.9157C30.5724 29.259 29.2541 32.4361 29.25 35.75Z" fill="#1B344B"/>
<defs>
<filter id="filter0_d_28_2" x="0" y="0" width="96" height="96" filterUnits="userSpaceOnUse" color-interpolation-filters="sRGB">
<feFlood flood-opacity="0" result="BackgroundImageFix"/>
<feColorMatrix in="SourceAlpha" type="matrix" values="0 0 0 0 0 0 0 0 0 0 0 0 0 0 0 0 0 0 127 0" result="hardAlpha"/>
<feOffset dy="4"/>
<feGaussianBlur stdDeviation="2"/>
<feComposite in2="hardAlpha" operator="out"/>
<feColorMatrix type="matrix" values="0 0 0 0 0 0 0 0 0 0 0 0 0 0 0 0 0 0 0.25 0"/>
<feBlend mode="normal" in2="BackgroundImageFix" result="effect1_dropShadow_28_2"/>
<feBlend mode="normal" in="SourceGraphic" in2="effect1_dropShadow_28_2" result="shape"/>
</filter>
</defs>
</svg>
