<svg width="90" height="79" viewBox="0 0 90 79" fill="none" xmlns="http://www.w3.org/2000/svg">
<path fill-rule="evenodd" clip-rule="evenodd" d="M48.8813 8.75113C46.2352 6.41629 42.2648 6.41629 39.6186 8.75113L20.3686 25.7364C18.8627 27.0652 18 28.9769 18 30.9853V58.622C18 62.488 21.134 65.622 25 65.622H29.375C31.308 65.622 32.875 67.189 32.875 69.122C32.875 71.055 31.308 72.622 29.375 72.622H25C17.268 72.622 11 66.354 11 58.622V30.9853C11 26.9685 12.7253 23.1452 15.7373 20.4876L34.9873 3.50227C40.2796 -1.16742 48.2204 -1.16742 53.5127 3.50227L61.4268 10.4853L71.0377 18.7856C72.5006 20.049 72.6623 22.2592 71.3989 23.7221C70.1354 25.1851 67.9253 25.3468 66.4623 24.0834L56.8233 15.7587L48.8813 8.75113Z" fill="#B69A80"/>
<path d="M57.7344 49.0685H64.1875C64.8721 49.0685 65.5287 48.7966 66.0127 48.3126C66.4968 47.8286 66.7688 47.1722 66.7688 46.4877C66.7688 45.8033 66.4968 45.1469 66.0127 44.6629C65.5287 44.1789 64.8721 43.907 64.1875 43.907H61.6063V42.6166C61.6063 41.9322 61.3343 41.2758 60.8502 40.7918C60.3662 40.3078 59.7096 40.0359 59.025 40.0359C58.3404 40.0359 57.6839 40.3078 57.1998 40.7918C56.7157 41.2758 56.4438 41.9322 56.4438 42.6166V44.036C54.8755 44.3544 53.4814 45.2441 52.5323 46.5323C51.5831 47.8205 51.1466 49.4154 51.3075 51.0072C51.4683 52.5991 52.215 54.0745 53.4026 55.1469C54.5903 56.2193 56.1341 56.8123 57.7344 56.8107H60.3156C60.6579 56.8107 60.9862 56.9466 61.2282 57.1886C61.4703 57.4306 61.6063 57.7588 61.6063 58.1011C61.6063 58.4433 61.4703 58.7715 61.2282 59.0135C60.9862 59.2555 60.6579 59.3914 60.3156 59.3914H53.8625C53.1779 59.3914 52.5214 59.6633 52.0373 60.1473C51.5532 60.6313 51.2813 61.2877 51.2813 61.9722C51.2813 62.6566 51.5532 63.313 52.0373 63.797C52.5214 64.281 53.1779 64.5529 53.8625 64.5529H56.4438V65.8433C56.4438 66.5277 56.7157 67.1841 57.1998 67.6681C57.6839 68.1521 58.3404 68.424 59.025 68.424C59.7096 68.424 60.3662 68.1521 60.8502 67.6681C61.3343 67.1841 61.6063 66.5277 61.6063 65.8433V64.4239C63.1746 64.1055 64.5686 63.2158 65.5177 61.9276C66.4669 60.6394 66.9034 59.0445 66.7426 57.4526C66.5817 55.8608 65.835 54.3854 64.6474 53.313C63.4598 52.2406 61.9159 51.6476 60.3156 51.6492H57.7344C57.3921 51.6492 57.0638 51.5133 56.8218 51.2713C56.5797 51.0293 56.4438 50.7011 56.4438 50.3588C56.4438 50.0166 56.5797 49.6884 56.8218 49.4464C57.0638 49.2044 57.3921 49.0685 57.7344 49.0685ZM87.4188 52.9396H79.675V29.7129C79.6768 29.2582 79.5584 28.811 79.3318 28.4168C79.1051 28.0225 78.7783 27.6951 78.3844 27.4677C77.992 27.2412 77.5469 27.1219 77.0938 27.1219C76.6407 27.1219 76.1955 27.2412 75.8031 27.4677L68.0594 31.9066L60.3156 27.4677C59.9232 27.2412 59.4781 27.1219 59.025 27.1219C58.5719 27.1219 58.1268 27.2412 57.7344 27.4677L49.9906 31.9066L42.2469 27.4677C41.8545 27.2412 41.4094 27.1219 40.9563 27.1219C40.5032 27.1219 40.058 27.2412 39.6656 27.4677C39.2717 27.6951 38.9449 28.0225 38.7183 28.4168C38.4916 28.811 38.3732 29.2582 38.375 29.7129V71.0047C38.375 73.0581 39.1909 75.0274 40.6431 76.4793C42.0953 77.9313 44.065 78.7469 46.1188 78.7469H82.2563C84.31 78.7469 86.2797 77.9313 87.7319 76.4793C89.1841 75.0274 90 73.0581 90 71.0047V55.5203C90 54.8359 89.7281 54.1794 89.244 53.6955C88.7599 53.2115 88.1033 52.9396 87.4188 52.9396ZM46.1188 73.5855C45.4342 73.5855 44.7776 73.3136 44.2935 72.8296C43.8095 72.3456 43.5375 71.6892 43.5375 71.0047V34.1776L48.7 37.1197C49.0984 37.3277 49.5412 37.4363 49.9906 37.4363C50.4401 37.4363 50.8829 37.3277 51.2813 37.1197L59.025 32.6808L66.7688 37.1197C67.1671 37.3277 67.6099 37.4363 68.0594 37.4363C68.5088 37.4363 68.9516 37.3277 69.35 37.1197L74.5125 34.1776V71.0047C74.5195 71.8851 74.6766 72.7579 74.9771 73.5855H46.1188ZM84.8375 71.0047C84.8375 71.6892 84.5656 72.3456 84.0815 72.8296C83.5974 73.3136 82.9408 73.5855 82.2563 73.5855C81.5717 73.5855 80.9151 73.3136 80.431 72.8296C79.947 72.3456 79.675 71.6892 79.675 71.0047V58.1011H84.8375V71.0047Z" fill="#B69A80"/>
<path fill-rule="evenodd" clip-rule="evenodd" d="M40.6436 3.70626C41.9104 5.16629 41.7538 7.37683 40.2937 8.64362L6.29373 38.1436C4.83369 39.4104 2.62316 39.2538 1.35636 37.7937C0.0895686 36.3337 0.246221 34.1232 1.70626 32.8564L35.7063 3.35636C37.1663 2.08957 39.3768 2.24622 40.6436 3.70626Z" fill="#B69A80"/>
</svg>
