<svg width="80" height="80" viewBox="0 0 80 80" fill="none" xmlns="http://www.w3.org/2000/svg">
<path d="M40 63.3333C40.6593 63.3333 41.3037 63.1378 41.8519 62.7715C42.4001 62.4053 42.8273 61.8847 43.0796 61.2756C43.3319 60.6665 43.3979 59.9963 43.2693 59.3497C43.1407 58.7031 42.8232 58.1091 42.357 57.6429C41.8908 57.1768 41.2969 56.8593 40.6503 56.7307C40.0037 56.6021 39.3335 56.6681 38.7244 56.9204C38.1153 57.1727 37.5947 57.5999 37.2284 58.1481C36.8622 58.6962 36.6667 59.3407 36.6667 60C36.6667 60.884 37.0178 61.7319 37.643 62.357C38.2681 62.9821 39.1159 63.3333 40 63.3333ZM56.6667 63.3333C57.3259 63.3333 57.9704 63.1378 58.5186 62.7715C59.0667 62.4053 59.494 61.8847 59.7463 61.2756C59.9985 60.6665 60.0646 59.9963 59.9359 59.3497C59.8073 58.7031 59.4899 58.1091 59.0237 57.6429C58.5575 57.1768 57.9636 56.8593 57.317 56.7307C56.6704 56.6021 56.0001 56.6681 55.391 56.9204C54.782 57.1727 54.2614 57.5999 53.8951 58.1481C53.5288 58.6962 53.3333 59.3407 53.3333 60C53.3333 60.884 53.6845 61.7319 54.3096 62.357C54.9347 62.9821 55.7826 63.3333 56.6667 63.3333ZM56.6667 50C57.3259 50 57.9704 49.8045 58.5186 49.4382C59.0667 49.0719 59.494 48.5513 59.7463 47.9423C59.9985 47.3332 60.0646 46.6629 59.9359 46.0163C59.8073 45.3697 59.4899 44.7758 59.0237 44.3096C58.5575 43.8434 57.9636 43.526 57.317 43.3974C56.6704 43.2687 56.0001 43.3348 55.391 43.587C54.782 43.8393 54.2614 44.2666 53.8951 44.8147C53.5288 45.3629 53.3333 46.0074 53.3333 46.6666C53.3333 47.5507 53.6845 48.3985 54.3096 49.0237C54.9347 49.6488 55.7826 50 56.6667 50ZM40 50C40.6593 50 41.3037 49.8045 41.8519 49.4382C42.4001 49.0719 42.8273 48.5513 43.0796 47.9423C43.3319 47.3332 43.3979 46.6629 43.2693 46.0163C43.1407 45.3697 42.8232 44.7758 42.357 44.3096C41.8908 43.8434 41.2969 43.526 40.6503 43.3974C40.0037 43.2687 39.3335 43.3348 38.7244 43.587C38.1153 43.8393 37.5947 44.2666 37.2284 44.8147C36.8622 45.3629 36.6667 46.0074 36.6667 46.6666C36.6667 47.5507 37.0178 48.3985 37.643 49.0237C38.2681 49.6488 39.1159 50 40 50ZM63.3333 9.99998H60V6.66665C60 5.78259 59.6488 4.93474 59.0237 4.30962C58.3986 3.6845 57.5507 3.33331 56.6667 3.33331C55.7826 3.33331 54.9347 3.6845 54.3096 4.30962C53.6845 4.93474 53.3333 5.78259 53.3333 6.66665V9.99998H26.6667V6.66665C26.6667 5.78259 26.3155 4.93474 25.6903 4.30962C25.0652 3.6845 24.2174 3.33331 23.3333 3.33331C22.4493 3.33331 21.6014 3.6845 20.9763 4.30962C20.3512 4.93474 20 5.78259 20 6.66665V9.99998H16.6667C14.0145 9.99998 11.471 11.0535 9.59559 12.9289C7.72023 14.8043 6.66666 17.3478 6.66666 20V66.6666C6.66666 69.3188 7.72023 71.8623 9.59559 73.7377C11.471 75.6131 14.0145 76.6666 16.6667 76.6666H63.3333C65.9855 76.6666 68.529 75.6131 70.4044 73.7377C72.2798 71.8623 73.3333 69.3188 73.3333 66.6666V20C73.3333 17.3478 72.2798 14.8043 70.4044 12.9289C68.529 11.0535 65.9855 9.99998 63.3333 9.99998ZM66.6667 66.6666C66.6667 67.5507 66.3155 68.3985 65.6903 69.0237C65.0652 69.6488 64.2174 70 63.3333 70H16.6667C15.7826 70 14.9348 69.6488 14.3096 69.0237C13.6845 68.3985 13.3333 67.5507 13.3333 66.6666V36.6666H66.6667V66.6666ZM66.6667 30H13.3333V20C13.3333 19.1159 13.6845 18.2681 14.3096 17.643C14.9348 17.0178 15.7826 16.6666 16.6667 16.6666H20V20C20 20.884 20.3512 21.7319 20.9763 22.357C21.6014 22.9821 22.4493 23.3333 23.3333 23.3333C24.2174 23.3333 25.0652 22.9821 25.6903 22.357C26.3155 21.7319 26.6667 20.884 26.6667 20V16.6666H53.3333V20C53.3333 20.884 53.6845 21.7319 54.3096 22.357C54.9347 22.9821 55.7826 23.3333 56.6667 23.3333C57.5507 23.3333 58.3986 22.9821 59.0237 22.357C59.6488 21.7319 60 20.884 60 20V16.6666H63.3333C64.2174 16.6666 65.0652 17.0178 65.6903 17.643C66.3155 18.2681 66.6667 19.1159 66.6667 20V30ZM23.3333 50C23.9926 50 24.6371 49.8045 25.1852 49.4382C25.7334 49.0719 26.1606 48.5513 26.4129 47.9423C26.6652 47.3332 26.7312 46.6629 26.6026 46.0163C26.474 45.3697 26.1565 44.7758 25.6903 44.3096C25.2242 43.8434 24.6302 43.526 23.9836 43.3974C23.337 43.2687 22.6668 43.3348 22.0577 43.587C21.4486 43.8393 20.928 44.2666 20.5618 44.8147C20.1955 45.3629 20 46.0074 20 46.6666C20 47.5507 20.3512 48.3985 20.9763 49.0237C21.6014 49.6488 22.4493 50 23.3333 50ZM23.3333 63.3333C23.9926 63.3333 24.6371 63.1378 25.1852 62.7715C25.7334 62.4053 26.1606 61.8847 26.4129 61.2756C26.6652 60.6665 26.7312 59.9963 26.6026 59.3497C26.474 58.7031 26.1565 58.1091 25.6903 57.6429C25.2242 57.1768 24.6302 56.8593 23.9836 56.7307C23.337 56.6021 22.6668 56.6681 22.0577 56.9204C21.4486 57.1727 20.928 57.5999 20.5618 58.1481C20.1955 58.6962 20 59.3407 20 60C20 60.884 20.3512 61.7319 20.9763 62.357C21.6014 62.9821 22.4493 63.3333 23.3333 63.3333Z" fill="#B69A80"/>
</svg>
