<svg width="80" height="80" viewBox="0 0 80 80" fill="none" xmlns="http://www.w3.org/2000/svg">
<path d="M63.3333 6.66669H16.6667C14.0145 6.66669 11.471 7.72026 9.5956 9.59562C7.72024 11.471 6.66667 14.0145 6.66667 16.6667V50C6.66667 52.6522 7.72024 55.1957 9.5956 57.0711C11.471 58.9465 14.0145 60 16.6667 60H55.3L67.6333 72.3667C67.9448 72.6756 68.3142 72.92 68.7203 73.0859C69.1264 73.2518 69.5613 73.3359 70 73.3334C70.4373 73.3446 70.8711 73.2533 71.2667 73.0667C71.8754 72.8166 72.3965 72.392 72.7643 71.8462C73.132 71.3005 73.3301 70.6581 73.3333 70V16.6667C73.3333 14.0145 72.2798 11.471 70.4044 9.59562C68.529 7.72026 65.9855 6.66669 63.3333 6.66669ZM66.6667 61.9667L59.0333 54.3C58.7219 53.9911 58.3525 53.7467 57.9464 53.5808C57.5402 53.4149 57.1054 53.3308 56.6667 53.3334H16.6667C15.7826 53.3334 14.9348 52.9822 14.3096 52.357C13.6845 51.7319 13.3333 50.8841 13.3333 50V16.6667C13.3333 15.7826 13.6845 14.9348 14.3096 14.3097C14.9348 13.6845 15.7826 13.3334 16.6667 13.3334H63.3333C64.2174 13.3334 65.0652 13.6845 65.6904 14.3097C66.3155 14.9348 66.6667 15.7826 66.6667 16.6667V61.9667ZM40 40C39.3407 40 38.6963 40.1955 38.1481 40.5618C37.5999 40.9281 37.1727 41.4487 36.9204 42.0577C36.6681 42.6668 36.6021 43.3371 36.7307 43.9837C36.8593 44.6303 37.1768 45.2242 37.643 45.6904C38.1092 46.1566 38.7031 46.474 39.3497 46.6026C39.9963 46.7313 40.6665 46.6652 41.2756 46.413C41.8847 46.1607 42.4053 45.7334 42.7716 45.1853C43.1378 44.6371 43.3333 43.9926 43.3333 43.3334C43.3333 42.4493 42.9821 41.6015 42.357 40.9763C41.7319 40.3512 40.8841 40 40 40ZM40 20C39.1159 20 38.2681 20.3512 37.643 20.9763C37.0179 21.6015 36.6667 22.4493 36.6667 23.3334V33.3334C36.6667 34.2174 37.0179 35.0653 37.643 35.6904C38.2681 36.3155 39.1159 36.6667 40 36.6667C40.8841 36.6667 41.7319 36.3155 42.357 35.6904C42.9821 35.0653 43.3333 34.2174 43.3333 33.3334V23.3334C43.3333 22.4493 42.9821 21.6015 42.357 20.9763C41.7319 20.3512 40.8841 20 40 20Z" fill="#B69A80"/>
</svg>
