<svg width="80" height="80" viewBox="0 0 80 80" fill="none" xmlns="http://www.w3.org/2000/svg">
<path d="M26.6667 36.6667C26.0074 36.6667 25.3629 36.8622 24.8148 37.2285C24.2666 37.5947 23.8394 38.1153 23.5871 38.7244C23.3348 39.3335 23.2688 40.0037 23.3974 40.6503C23.526 41.2969 23.8435 41.8909 24.3096 42.357C24.7758 42.8232 25.3698 43.1407 26.0164 43.2693C26.663 43.3979 27.3332 43.3319 27.9423 43.0796C28.5514 42.8273 29.072 42.4001 29.4382 41.8519C29.8045 41.3038 30 40.6593 30 40C30 39.116 29.6488 38.2681 29.0237 37.643C28.3986 37.0179 27.5507 36.6667 26.6667 36.6667ZM40 36.6667C39.3407 36.6667 38.6963 36.8622 38.1481 37.2285C37.5999 37.5947 37.1727 38.1153 36.9204 38.7244C36.6681 39.3335 36.6021 40.0037 36.7307 40.6503C36.8593 41.2969 37.1768 41.8909 37.643 42.357C38.1091 42.8232 38.7031 43.1407 39.3497 43.2693C39.9963 43.3979 40.6665 43.3319 41.2756 43.0796C41.8847 42.8273 42.4053 42.4001 42.7716 41.8519C43.1378 41.3038 43.3333 40.6593 43.3333 40C43.3333 39.116 42.9821 38.2681 42.357 37.643C41.7319 37.0179 40.8841 36.6667 40 36.6667ZM53.3333 36.6667C52.6741 36.6667 52.0296 36.8622 51.4814 37.2285C50.9333 37.5947 50.506 38.1153 50.2537 38.7244C50.0014 39.3335 49.9354 40.0037 50.064 40.6503C50.1927 41.2969 50.5101 41.8909 50.9763 42.357C51.4425 42.8232 52.0364 43.1407 52.683 43.2693C53.3296 43.3979 53.9999 43.3319 54.6089 43.0796C55.218 42.8273 55.7386 42.4001 56.1049 41.8519C56.4712 41.3038 56.6667 40.6593 56.6667 40C56.6667 39.116 56.3155 38.2681 55.6904 37.643C55.0652 37.0179 54.2174 36.6667 53.3333 36.6667ZM40 6.66669C35.6226 6.66669 31.2881 7.52888 27.2439 9.20404C23.1997 10.8792 19.5251 13.3345 16.4298 16.4298C10.1786 22.681 6.66666 31.1595 6.66666 40C6.63752 47.6971 9.30264 55.1618 14.2 61.1L7.53333 67.7667C7.0708 68.2354 6.75748 68.8307 6.6329 69.4773C6.50832 70.1239 6.57806 70.793 6.83333 71.4C7.11019 71.9998 7.55901 72.5038 8.12282 72.848C8.68663 73.1922 9.34 73.3611 10 73.3334H40C48.8405 73.3334 57.319 69.8215 63.5702 63.5702C69.8214 57.319 73.3333 48.8406 73.3333 40C73.3333 31.1595 69.8214 22.681 63.5702 16.4298C57.319 10.1786 48.8405 6.66669 40 6.66669ZM40 66.6667H18.0333L21.1333 63.5667C21.4483 63.258 21.6989 62.8898 21.8705 62.4836C22.0422 62.0773 22.1315 61.641 22.1333 61.2C22.1208 60.3208 21.7614 59.4821 21.1333 58.8667C16.7686 54.5068 14.0506 48.7685 13.4423 42.6293C12.834 36.4902 14.3731 30.33 17.7974 25.1984C21.2217 20.0668 26.3193 16.2812 32.2217 14.4866C38.1241 12.692 44.4662 12.9994 50.1674 15.3564C55.8686 17.7134 60.5762 21.9743 63.4881 27.413C66.4001 32.8517 67.3362 39.1318 66.1371 45.1834C64.9379 51.2349 61.6777 56.6835 56.9118 60.6008C52.1459 64.5181 46.1692 66.6618 40 66.6667Z" fill="#B69A80"/>
</svg>
