<svg width="90" height="79" viewBox="0 0 90 79" fill="none" xmlns="http://www.w3.org/2000/svg">
<path fill-rule="evenodd" clip-rule="evenodd" d="M48.8813 8.75113C46.2352 6.41629 42.2648 6.41629 39.6186 8.75113L20.3686 25.7364C18.8627 27.0652 18 28.9769 18 30.9853V58.622C18 62.488 21.134 65.622 25 65.622H29.375C31.308 65.622 32.875 67.189 32.875 69.122C32.875 71.055 31.308 72.622 29.375 72.622H25C17.268 72.622 11 66.354 11 58.622V30.9853C11 26.9685 12.7253 23.1452 15.7373 20.4876L34.9873 3.50227C40.2796 -1.16742 48.2204 -1.16742 53.5127 3.50227L61.4268 10.4853L71.0377 18.7856C72.5006 20.049 72.6623 22.2592 71.3989 23.7221C70.1354 25.1851 67.9253 25.3468 66.4623 24.0834L56.8233 15.7587L48.8813 8.75113Z" fill="#B69A80"/>
<path d="M87.4188 52.9396H79.675V29.7129C79.6768 29.2582 79.5584 28.811 79.3318 28.4168C79.1051 28.0225 78.7783 27.6951 78.3844 27.4677C77.992 27.2412 77.5469 27.1219 77.0938 27.1219C76.6407 27.1219 76.1955 27.2412 75.8031 27.4677L68.0594 31.9066L60.3156 27.4677C59.9232 27.2412 59.4781 27.1219 59.025 27.1219C58.5719 27.1219 58.1268 27.2412 57.7344 27.4677L49.9906 31.9066L42.2469 27.4677C41.8545 27.2412 41.4094 27.1219 40.9563 27.1219C40.5032 27.1219 40.058 27.2412 39.6656 27.4677C39.2717 27.6951 38.9449 28.0225 38.7183 28.4168C38.4916 28.811 38.3732 29.2582 38.375 29.7129V71.0047C38.375 73.0581 39.1909 75.0274 40.6431 76.4793C42.0953 77.9313 44.065 78.7469 46.1188 78.7469H82.2563C84.31 78.7469 86.2797 77.9313 87.7319 76.4793C89.1841 75.0274 90 73.0581 90 71.0047V55.5203C90 54.8359 89.7281 54.1794 89.244 53.6955C88.7599 53.2115 88.1033 52.9396 87.4188 52.9396ZM46.1188 73.5855C45.4342 73.5855 44.7776 73.3136 44.2935 72.8296C43.8095 72.3456 43.5375 71.6892 43.5375 71.0047V34.1776L48.7 37.1197C49.0984 37.3277 49.5412 37.4363 49.9906 37.4363C50.4401 37.4363 50.8829 37.3277 51.2813 37.1197L59.025 32.6808L66.7688 37.1197C67.1671 37.3277 67.6099 37.4363 68.0594 37.4363C68.5088 37.4363 68.9516 37.3277 69.35 37.1197L74.5125 34.1776V71.0047C74.5195 71.8851 74.6766 72.7579 74.9771 73.5855H46.1188ZM84.8375 71.0047C84.8375 71.6892 84.5656 72.3456 84.0815 72.8296C83.5974 73.3136 82.9408 73.5855 82.2563 73.5855C81.5717 73.5855 80.9151 73.3136 80.431 72.8296C79.947 72.3456 79.675 71.6892 79.675 71.0047V58.1011H84.8375V71.0047Z" fill="#B69A80"/>
<path fill-rule="evenodd" clip-rule="evenodd" d="M47.5 65C47.5 63.6193 48.6193 62.5 50 62.5H65C66.3807 62.5 67.5 63.6193 67.5 65C67.5 66.3807 66.3807 67.5 65 67.5H50C48.6193 67.5 47.5 66.3807 47.5 65Z" fill="#B69A80"/>
<path fill-rule="evenodd" clip-rule="evenodd" d="M47 56C47 54.6193 48.1193 53.5 49.5 53.5H68.5C69.8807 53.5 71 54.6193 71 56C71 57.3807 69.8807 58.5 68.5 58.5H49.5C48.1193 58.5 47 57.3807 47 56Z" fill="#B69A80"/>
<path fill-rule="evenodd" clip-rule="evenodd" d="M47 47C47 45.6193 48.1193 44.5 49.5 44.5H63.5C64.8807 44.5 66 45.6193 66 47C66 48.3807 64.8807 49.5 63.5 49.5H49.5C48.1193 49.5 47 48.3807 47 47Z" fill="#B69A80"/>
<path fill-rule="evenodd" clip-rule="evenodd" d="M34.6574 8.72223C35.9154 10.1899 35.7454 12.3994 34.2778 13.6574L6.27777 37.6574C4.81013 38.9154 2.60058 38.7454 1.3426 37.2778C0.0846267 35.8101 0.254592 33.6006 1.72223 32.3426L29.7222 8.3426C31.1899 7.08463 33.3994 7.25459 34.6574 8.72223Z" fill="#B69A80"/>
</svg>
