<svg width="82" height="78" viewBox="0 0 82 78" fill="none" xmlns="http://www.w3.org/2000/svg">
<path fill-rule="evenodd" clip-rule="evenodd" d="M47.8813 8.75113C45.2352 6.41629 41.2648 6.41629 38.6186 8.75113L19.3686 25.7364C17.8627 27.0652 17 28.9769 17 30.9853V58.622C17 62.488 20.134 65.622 24 65.622H29.375C31.308 65.622 32.875 67.189 32.875 69.122C32.875 71.055 31.308 72.622 29.375 72.622H24C16.268 72.622 10 66.354 10 58.622V30.9853C10 26.9685 11.7253 23.1452 14.7373 20.4876L33.9873 3.50227C39.2796 -1.16742 47.2204 -1.16742 52.5127 3.50227L60.4268 10.4853L70.0377 18.7856C71.5006 20.049 71.6623 22.2592 70.3989 23.7221C69.1354 25.1851 66.9253 25.3468 65.4623 24.0834L55.8233 15.7587L47.8813 8.75113Z" fill="#B69A80"/>
<path fill-rule="evenodd" clip-rule="evenodd" d="M33.6644 8.73037C34.9178 10.2019 34.7411 12.4109 33.2696 13.6644L6.26964 36.6644C4.79816 37.9178 2.58914 37.7411 1.33566 36.2696C0.0821727 34.7982 0.258894 32.5891 1.73037 31.3357L28.7304 8.33566C30.2019 7.08217 32.4109 7.25889 33.6644 8.73037Z" fill="#B69A80"/>
<path d="M42.9 68.8027H52.652C52.9547 68.8044 53.2548 68.7464 53.535 68.632C53.8152 68.5176 54.0701 68.349 54.285 68.1359L70.201 52.2015L76.733 45.8093C76.9486 45.5956 77.1197 45.3413 77.2365 45.0611C77.3532 44.7809 77.4133 44.4803 77.4133 44.1768C77.4133 43.8733 77.3532 43.5727 77.2365 43.2925C77.1197 43.0123 76.9486 42.758 76.733 42.5443L66.981 32.6801C66.7672 32.4646 66.5128 32.2936 66.2325 32.1768C65.9523 32.0601 65.6516 32 65.348 32C65.0444 32 64.7438 32.0601 64.4635 32.1768C64.1832 32.2936 63.9288 32.4646 63.715 32.6801L57.229 39.1873L41.267 55.1216C41.0538 55.3365 40.8852 55.5913 40.7707 55.8714C40.6563 56.1516 40.5983 56.4516 40.6 56.7542V66.5033C40.6 67.1132 40.8423 67.698 41.2737 68.1292C41.705 68.5604 42.29 68.8027 42.9 68.8027ZM65.348 37.5547L71.857 44.0618L68.591 47.3269L62.082 40.8198L65.348 37.5547ZM45.2 57.6969L58.839 44.0618L65.348 50.569L51.709 64.204H45.2V57.6969ZM79.7 73.4013H38.3C37.69 73.4013 37.105 73.6436 36.6737 74.0748C36.2423 74.506 36 75.0909 36 75.7007C36 76.3105 36.2423 76.8953 36.6737 77.3265C37.105 77.7578 37.69 78 38.3 78H79.7C80.31 78 80.895 77.7578 81.3263 77.3265C81.7577 76.8953 82 76.3105 82 75.7007C82 75.0909 81.7577 74.506 81.3263 74.0748C80.895 73.6436 80.31 73.4013 79.7 73.4013Z" fill="#B69A80"/>
</svg>
