<svg width="96" height="96" viewBox="0 0 96 96" fill="none" xmlns="http://www.w3.org/2000/svg">
<g filter="url(#filter0_d_91_162)">
<circle cx="48" cy="44" r="44" fill="#D9D9D9"/>
</g>
<circle cx="48" cy="44" r="38.5" stroke="#1B344B" stroke-width="3"/>
<path d="M46.0215 43.1513L46.1767 43.3065L53.0588 50.1886C53.346 50.4623 53.7275 50.6149 54.1242 50.6149C54.5209 50.6149 54.9024 50.4622 55.1895 50.1886C55.3291 50.0492 55.4399 49.8837 55.5156 49.7015C55.5915 49.5189 55.6306 49.323 55.6307 49.1252C55.6309 48.9274 55.592 48.7315 55.5164 48.5488C55.4407 48.366 55.3298 48.1999 55.1899 48.0601L55.1899 48.0601L48.3065 41.175L48.1513 41.0198L48.3523 40.9316L50.5717 39.9578C52.4163 39.148 54.4491 38.8647 56.4448 39.1393C58.4405 39.4139 60.3212 40.2357 61.8786 41.5136C63.4359 42.7915 64.609 44.4756 65.268 46.3793C65.9179 48.2571 66.0426 50.2761 65.6293 52.2187L72.4084 58.9978C73.2402 59.8295 73.8066 60.8892 74.0361 62.0428C74.2656 63.1964 74.1478 64.3922 73.6977 65.4789C73.2476 66.5656 72.4853 67.4944 71.5072 68.1479C70.5293 68.8013 69.3796 69.15 68.2036 69.15C68.2034 69.15 68.2032 69.15 68.2031 69.15L68.2031 69C67.4415 69.0022 66.687 68.8533 65.9834 68.5619C65.2797 68.2705 64.6409 67.8424 64.1039 67.3023L46.0215 43.1513ZM46.0215 43.1513L45.9333 43.3523L44.9594 45.5716L46.0215 43.1513ZM58.322 56.6228L58.257 56.5578L58.1696 56.5862L57.2057 56.8992L57.2056 56.8992C56.1097 57.2557 54.945 57.3475 53.8067 57.1673C52.6685 56.9871 51.5892 56.5399 50.657 55.8623C49.7248 55.1847 48.9664 54.296 48.4437 53.2689C47.9211 52.2419 47.6491 51.1056 47.65 49.9532V49.9531C47.65 49.9315 47.6501 49.9098 47.6503 49.8882L50.506 52.744L50.506 52.744L50.5085 52.7464C51.4829 53.6768 52.7785 54.196 54.1258 54.196C55.4732 54.196 56.7687 53.6768 57.7431 52.7464L57.7432 52.7464L57.7456 52.7439C58.7052 51.784 59.2443 50.4823 59.2443 49.125C59.2443 47.7677 58.7052 46.4659 57.7456 45.506L57.7456 45.506L54.8899 42.6502C54.9109 42.6501 54.932 42.65 54.9531 42.65L54.9532 42.65C56.1054 42.6491 57.2415 42.921 58.2683 43.4436C59.2952 43.9662 60.1837 44.7245 60.8612 45.6565C61.5386 46.5885 61.9857 47.6677 62.1658 48.8057C62.346 49.9437 62.254 51.1082 61.8976 52.2039L61.8974 52.2043L61.5861 53.1699L61.5579 53.2571L61.6228 53.322L69.8527 61.5535L69.8528 61.5537C70.0698 61.7702 70.242 62.0274 70.3595 62.3106C70.477 62.5938 70.5375 62.8974 70.5375 63.2039C70.5375 63.5105 70.477 63.8141 70.3595 64.0973C70.2422 64.3799 70.0704 64.6368 69.8539 64.853C69.409 65.2772 68.8179 65.5139 68.2031 65.5139C67.5884 65.5139 66.9972 65.2773 66.5523 64.8531L58.322 56.6228Z" fill="#1B344B" stroke="#1B344B" stroke-width="0.3"/>
<path d="M62.407 24.0312H62.4062H57.6875L57.6875 22.625L57.6875 22.6243C57.6847 21.6805 57.3085 20.7762 56.6412 20.1088C55.9738 19.4415 55.0695 19.0653 54.1257 19.0625H54.125L40.875 19.0625L40.8743 19.0625C39.9305 19.0653 39.0262 19.4415 38.3588 20.1088C37.6915 20.7762 37.3153 21.6805 37.3125 22.6243V22.625V24.0312L32.5938 24.0312L32.593 24.0313C31.6492 24.0341 30.7449 24.4102 30.0776 25.0776C29.4102 25.7449 29.0341 26.6492 29.0312 27.593V27.5938L29.0312 62.375L29.0313 62.3757C29.0341 63.3195 29.4102 64.2238 30.0776 64.8912C30.7449 65.5585 31.6492 65.9347 32.593 65.9375H32.5938H44.1875H44.4375V65.6875V62.375V62.125H44.1875H32.8438V27.8438H37.3125V32.5625V32.8125H37.5625H57.4375H57.6875V32.5625V27.8438H62.1562V35.875V36.125H62.4062H65.7188H65.9688V35.875V27.5938V27.593C65.9659 26.6492 65.5898 25.7449 64.9224 25.0776C64.2551 24.4102 63.3508 24.0341 62.407 24.0312ZM53.875 29H41.125V22.875H53.875V29Z" fill="#1B344B" stroke="#1B344B" stroke-width="0.5"/>
<defs>
<filter id="filter0_d_91_162" x="0" y="0" width="96" height="96" filterUnits="userSpaceOnUse" color-interpolation-filters="sRGB">
<feFlood flood-opacity="0" result="BackgroundImageFix"/>
<feColorMatrix in="SourceAlpha" type="matrix" values="0 0 0 0 0 0 0 0 0 0 0 0 0 0 0 0 0 0 127 0" result="hardAlpha"/>
<feOffset dy="4"/>
<feGaussianBlur stdDeviation="2"/>
<feComposite in2="hardAlpha" operator="out"/>
<feColorMatrix type="matrix" values="0 0 0 0 0 0 0 0 0 0 0 0 0 0 0 0 0 0 0.25 0"/>
<feBlend mode="normal" in2="BackgroundImageFix" result="effect1_dropShadow_91_162"/>
<feBlend mode="normal" in="SourceGraphic" in2="effect1_dropShadow_91_162" result="shape"/>
</filter>
</defs>
</svg>
