<svg width="81" height="80" viewBox="0 0 81 80" fill="none" xmlns="http://www.w3.org/2000/svg">
<path fill-rule="evenodd" clip-rule="evenodd" d="M46.8813 8.75113C44.2352 6.41629 40.2648 6.41629 37.6186 8.75113L18.3686 25.7364C16.8627 27.0652 16 28.9769 16 30.9853V58.622C16 62.488 19.134 65.622 23 65.622H31.375C33.308 65.622 34.875 67.189 34.875 69.122C34.875 71.055 33.308 72.622 31.375 72.622H23C15.268 72.622 9 66.354 9 58.622V30.9853C9 26.9685 10.7253 23.1452 13.7373 20.4876L32.9873 3.50227C38.2796 -1.16742 46.2204 -1.16742 51.5127 3.50227L59.4268 10.4853L69.0377 18.7856C70.5006 20.049 70.6623 22.2592 69.3989 23.7221C68.1354 25.1851 65.9253 25.3468 64.4623 24.0834L54.8233 15.7587L46.8813 8.75113Z" fill="#B69A80"/>
<path fill-rule="evenodd" clip-rule="evenodd" d="M31.3338 10.115C32.3749 11.4039 32.1739 13.2927 30.885 14.3338L4.88499 35.3338C3.59606 36.3749 1.70722 36.1739 0.666156 34.885C-0.374907 33.5961 -0.173967 31.7072 1.11497 30.6662L27.115 9.66616C28.4039 8.62509 30.2927 8.82603 31.3338 10.115Z" fill="#B69A80"/>
<path d="M75.8732 32.9117C75.7433 32.359 75.4174 31.8666 74.951 31.5182C74.4846 31.1697 73.9066 30.9869 73.3153 31.0007H47.7359C47.1446 30.9869 46.5665 31.1697 46.1002 31.5182C45.6338 31.8666 45.3079 32.359 45.1779 32.9117L40.0621 54.9614C39.9774 55.3229 39.9794 55.6982 40.068 56.0589C40.1566 56.4196 40.3295 56.7564 40.5736 57.0438C40.8198 57.3346 41.1322 57.5675 41.4869 57.7247C41.8417 57.8818 42.2293 57.959 42.62 57.9503H52.6983C52.8011 58.7633 52.8524 59.5814 52.8518 60.4003C52.8757 66.175 50.5123 71.7241 46.2779 75.8351C45.9259 76.179 45.6875 76.6147 45.5926 77.0876C45.4977 77.5606 45.5504 78.0498 45.7442 78.4942C45.938 78.9386 46.2642 79.3185 46.6822 79.5863C47.1001 79.8541 47.5912 79.998 48.094 80H72.9572C73.46 79.998 73.9511 79.8541 74.369 79.5863C74.7869 79.3185 75.1132 78.9386 75.3069 78.4942C75.5007 78.0498 75.5535 77.5606 75.4586 77.0876C75.3636 76.6147 75.1253 76.179 74.7733 75.8351C70.5389 71.7241 68.1754 66.175 68.1994 60.4003C68.1988 59.5814 68.25 58.7633 68.3529 57.9503H70.7573V62.8503C70.7573 63.5 71.0268 64.1232 71.5065 64.5826C71.9862 65.0421 72.6369 65.3002 73.3153 65.3002C73.9937 65.3002 74.6443 65.0421 75.124 64.5826C75.6037 64.1232 75.8732 63.5 75.8732 62.8503V57.9503H78.4312C78.8133 57.9516 79.1909 57.8708 79.5361 57.7139C79.8814 57.5571 80.1856 57.3281 80.4263 57.0438C80.6705 56.7564 80.8434 56.4196 80.932 56.0589C81.0206 55.6982 81.0226 55.3229 80.9379 54.9614L75.8732 32.9117ZM53.4145 75.1001C56.3999 70.7318 57.9828 65.6212 57.9676 60.4003C57.9676 59.5918 57.9676 58.7588 57.8397 57.9503H63.2114C63.2114 58.7588 63.0835 59.5918 63.0835 60.4003C63.0683 65.6212 64.6513 70.7318 67.6367 75.1001H53.4145ZM45.7407 53.0504L49.7822 35.9007H71.2689L75.2337 53.0504H45.7407Z" fill="#B69A80"/>
</svg>
