<svg width="96" height="96" viewBox="0 0 96 96" fill="none" xmlns="http://www.w3.org/2000/svg">
<g filter="url(#filter0_d_29_3)">
<circle cx="48" cy="44" r="44" fill="#D9D9D9"/>
</g>
<circle cx="48" cy="44" r="38.5" stroke="#1B344B" stroke-width="3"/>
<path d="M72.1562 37.6271L49.6504 17.622C49.1941 17.2211 48.6074 17 48 17C47.3926 17 46.8059 17.2211 46.3496 17.622L23.8438 37.6271C23.4613 37.9655 23.1916 38.4129 23.0708 38.9091C22.9501 39.4053 22.9843 39.9266 23.1686 40.4028C23.35 40.8728 23.669 41.277 24.084 41.5626C24.499 41.8482 24.9905 42.0018 25.4942 42.0033H27.9949V64.509C27.9949 65.1722 28.2583 65.8083 28.7273 66.2772C29.1962 66.7462 29.8323 67.0097 30.4955 67.0097H65.5045C66.1677 67.0097 66.8038 66.7462 67.2727 66.2772C67.7417 65.8083 68.0051 65.1722 68.0051 64.509V42.0033H70.5058C71.0095 42.0018 71.501 41.8482 71.916 41.5626C72.331 41.277 72.65 40.8728 72.8314 40.4028C73.0157 39.9266 73.0499 39.4053 72.9291 38.9091C72.8084 38.4129 72.5387 37.9655 72.1562 37.6271ZM50.5006 62.0084H45.4994V54.5065C45.4994 53.8432 45.7628 53.2072 46.2318 52.7382C46.7007 52.2693 47.3368 52.0058 48 52.0058C48.6632 52.0058 49.2993 52.2693 49.7682 52.7382C50.2372 53.2072 50.5006 53.8432 50.5006 54.5065V62.0084ZM63.0039 62.0084H55.5019V54.5065C55.5019 52.5168 54.7115 50.6087 53.3047 49.2018C51.8978 47.7949 49.9896 47.0045 48 47.0045C46.0104 47.0045 44.1022 47.7949 42.6953 49.2018C41.2885 50.6087 40.4981 52.5168 40.4981 54.5065V62.0084H32.9961V42.0033H63.0039V62.0084ZM32.0709 37.002L48 22.8483L63.9291 37.002H32.0709Z" fill="#1B344B"/>
<defs>
<filter id="filter0_d_29_3" x="0" y="0" width="96" height="96" filterUnits="userSpaceOnUse" color-interpolation-filters="sRGB">
<feFlood flood-opacity="0" result="BackgroundImageFix"/>
<feColorMatrix in="SourceAlpha" type="matrix" values="0 0 0 0 0 0 0 0 0 0 0 0 0 0 0 0 0 0 127 0" result="hardAlpha"/>
<feOffset dy="4"/>
<feGaussianBlur stdDeviation="2"/>
<feComposite in2="hardAlpha" operator="out"/>
<feColorMatrix type="matrix" values="0 0 0 0 0 0 0 0 0 0 0 0 0 0 0 0 0 0 0.25 0"/>
<feBlend mode="normal" in2="BackgroundImageFix" result="effect1_dropShadow_29_3"/>
<feBlend mode="normal" in="SourceGraphic" in2="effect1_dropShadow_29_3" result="shape"/>
</filter>
</defs>
</svg>
