<svg width="80" height="80" viewBox="0 0 80 80" fill="none" xmlns="http://www.w3.org/2000/svg">
<path d="M46.6667 60C47.5507 60 48.3986 59.6488 49.0237 59.0237C49.6488 58.3986 50 57.5507 50 56.6666V50C50 49.1159 49.6488 48.2681 49.0237 47.643C48.3986 47.0178 47.5507 46.6666 46.6667 46.6666C45.7826 46.6666 44.9348 47.0178 44.3096 47.643C43.6845 48.2681 43.3333 49.1159 43.3333 50V56.6666C43.3333 57.5507 43.6845 58.3986 44.3096 59.0237C44.9348 59.6488 45.7826 60 46.6667 60ZM33.3333 60C34.2174 60 35.0652 59.6488 35.6904 59.0237C36.3155 58.3986 36.6667 57.5507 36.6667 56.6666V50C36.6667 49.1159 36.3155 48.2681 35.6904 47.643C35.0652 47.0178 34.2174 46.6666 33.3333 46.6666C32.4493 46.6666 31.6014 47.0178 30.9763 47.643C30.3512 48.2681 30 49.1159 30 50V56.6666C30 57.5507 30.3512 58.3986 30.9763 59.0237C31.6014 59.6488 32.4493 60 33.3333 60ZM63.3333 20H58.7333L52.9667 8.49999C52.7905 8.07683 52.5289 7.69457 52.1982 7.37708C51.8676 7.0596 51.4751 6.81371 51.0451 6.6548C50.6152 6.49588 50.1571 6.42735 49.6994 6.45348C49.2418 6.47962 48.7945 6.59985 48.3854 6.80668C47.9763 7.01351 47.6143 7.30249 47.322 7.65555C47.0297 8.00861 46.8133 8.41817 46.6864 8.85863C46.5595 9.2991 46.5248 9.761 46.5845 10.2155C46.6442 10.67 46.797 11.1072 47.0333 11.5L51.2667 20H28.7333L32.9667 11.5C33.2902 10.723 33.3079 9.8524 33.0161 9.06294C32.7243 8.27349 32.1446 7.62364 31.3935 7.24387C30.6424 6.8641 29.7755 6.78253 28.9667 7.01552C28.158 7.24851 27.4673 7.77882 27.0333 8.49999L21.2667 20H16.6667C14.3106 20.0358 12.0429 20.9025 10.2635 22.4471C8.48408 23.9917 7.30725 26.1151 6.94057 28.4427C6.57389 30.7703 7.04092 33.1526 8.25929 35.1695C9.47765 37.1864 11.3691 38.7082 13.6 39.4667L16.0667 64.3333C16.3154 66.8085 17.4778 69.1022 19.3269 70.7664C21.176 72.4306 23.579 73.3458 26.0667 73.3333H54C56.4877 73.3458 58.8907 72.4306 60.7398 70.7664C62.5888 69.1022 63.7513 66.8085 64 64.3333L66.4667 39.4667C68.7024 38.706 70.5968 37.1785 71.8143 35.1549C73.0319 33.1313 73.4939 30.7421 73.1186 28.4105C72.7433 26.0788 71.5549 23.9553 69.7639 22.4159C67.9729 20.8765 65.6949 20.0207 63.3333 20ZM57.3 63.6666C57.2171 64.4917 56.8296 65.2563 56.2133 65.811C55.5969 66.3657 54.7959 66.6708 53.9667 66.6666H26.0333C25.2041 66.6708 24.4031 66.3657 23.7867 65.811C23.1704 65.2563 22.7829 64.4917 22.7 63.6666L20.3333 40H59.6667L57.3 63.6666ZM63.3333 33.3333H16.6667C15.7826 33.3333 14.9348 32.9821 14.3096 32.357C13.6845 31.7319 13.3333 30.884 13.3333 30C13.3333 29.1159 13.6845 28.2681 14.3096 27.643C14.9348 27.0178 15.7826 26.6667 16.6667 26.6667H63.3333C64.2174 26.6667 65.0652 27.0178 65.6904 27.643C66.3155 28.2681 66.6667 29.1159 66.6667 30C66.6667 30.884 66.3155 31.7319 65.6904 32.357C65.0652 32.9821 64.2174 33.3333 63.3333 33.3333Z" fill="#B69A80"/>
</svg>
