<svg width="20" height="20" viewBox="0 0 20 20" fill="none" xmlns="http://www.w3.org/2000/svg">
<g clip-path="url(#clip0_15_78)">
<path d="M11.2275 1.9575C11.1038 1.74196 10.9253 1.56288 10.7103 1.43834C10.4952 1.31381 10.251 1.24823 10.0025 1.24823C9.75396 1.24823 9.50982 1.31381 9.29474 1.43834C9.07965 1.56288 8.90123 1.74196 8.77749 1.9575L0.206243 16.5412C-0.365007 17.5137 0.319993 18.75 1.43124 18.75H18.5725C19.6837 18.75 20.37 17.5125 19.7975 16.5412L11.2275 1.9575ZM9.99999 6.25C10.6687 6.25 11.1925 6.8275 11.125 7.49375L10.6875 11.8775C10.6728 12.0497 10.594 12.2101 10.4667 12.327C10.3394 12.4439 10.1728 12.5088 9.99999 12.5088C9.82715 12.5088 9.66061 12.4439 9.5333 12.327C9.40599 12.2101 9.32719 12.0497 9.31249 11.8775L8.87499 7.49375C8.85928 7.33654 8.87667 7.17779 8.92605 7.02771C8.97543 6.87763 9.05569 6.73956 9.16167 6.62239C9.26766 6.50522 9.39701 6.41155 9.5414 6.34741C9.68578 6.28327 9.842 6.25009 9.99999 6.25ZM10.0025 13.75C10.334 13.75 10.652 13.8817 10.8864 14.1161C11.1208 14.3505 11.2525 14.6685 11.2525 15C11.2525 15.3315 11.1208 15.6495 10.8864 15.8839C10.652 16.1183 10.334 16.25 10.0025 16.25C9.67097 16.25 9.35303 16.1183 9.11861 15.8839C8.88419 15.6495 8.75249 15.3315 8.75249 15C8.75249 14.6685 8.88419 14.3505 9.11861 14.1161C9.35303 13.8817 9.67097 13.75 10.0025 13.75Z" fill="#AF0404"/>
</g>
<defs>
<clipPath id="clip0_15_78">
<rect width="20" height="20" fill="white"/>
</clipPath>
</defs>
</svg>
