<svg width="30" height="30" viewBox="0 0 30 30" fill="none" xmlns="http://www.w3.org/2000/svg">
<path d="M23.88 7.44375C24.008 7.31318 24.1607 7.20946 24.3292 7.13865C24.4978 7.06784 24.6788 7.03137 24.8616 7.03137C25.0444 7.03137 25.2254 7.06784 25.3939 7.13865C25.5625 7.20946 25.7152 7.31318 25.8431 7.44375C26.3794 7.98562 26.3869 8.86125 25.8619 9.4125L14.775 22.5188C14.6491 22.657 14.4964 22.7681 14.3261 22.8452C14.1558 22.9224 13.9716 22.964 13.7846 22.9675C13.5977 22.971 13.4121 22.9364 13.239 22.8656C13.0659 22.7949 12.9091 22.6897 12.7781 22.5563L6.03188 15.72C5.7717 15.4547 5.62595 15.0979 5.62595 14.7262C5.62595 14.3546 5.7717 13.9978 6.03188 13.7325C6.15984 13.6019 6.31256 13.4982 6.48111 13.4274C6.64965 13.3566 6.83063 13.3201 7.01344 13.3201C7.19625 13.3201 7.37723 13.3566 7.54577 13.4274C7.71432 13.4982 7.86704 13.6019 7.995 13.7325L13.7175 19.5319L23.8425 7.485C23.8542 7.47051 23.8667 7.45673 23.88 7.44375Z" fill="white"/>
</svg>
