<svg width="31" height="30" viewBox="0 0 31 30" fill="none" xmlns="http://www.w3.org/2000/svg">
<path d="M29.0941 3.63751C29.2693 3.81324 29.3677 4.05125 29.3677 4.29938C29.3677 4.54751 29.2693 4.78552 29.0941 4.96125L27.1385 6.91876L23.3885 3.16876L25.3441 1.21125C25.5199 1.0355 25.7583 0.936768 26.0069 0.936768C26.2555 0.936768 26.4939 1.0355 26.6697 1.21125L29.0941 3.63563V3.63751ZM25.8129 8.24251L22.0628 4.49251L9.28847 17.2688C9.18528 17.3719 9.10759 17.4978 9.0616 17.6363L7.55222 22.1625C7.52485 22.245 7.52096 22.3335 7.541 22.4181C7.56103 22.5027 7.6042 22.5801 7.66568 22.6416C7.72715 22.703 7.80451 22.7462 7.88911 22.7662C7.97371 22.7863 8.06221 22.7824 8.14472 22.755L12.671 21.2456C12.8093 21.2002 12.9351 21.1231 13.0385 21.0206L25.8129 8.24438V8.24251Z" fill="white"/>
<path fill-rule="evenodd" clip-rule="evenodd" d="M1.90283 25.3125C1.90283 26.0584 2.19915 26.7738 2.72659 27.3012C3.25404 27.8287 3.96941 28.125 4.71533 28.125H25.3403C26.0862 28.125 26.8016 27.8287 27.3291 27.3012C27.8565 26.7738 28.1528 26.0584 28.1528 25.3125V14.0625C28.1528 13.8139 28.0541 13.5754 27.8782 13.3996C27.7024 13.2238 27.464 13.125 27.2153 13.125C26.9667 13.125 26.7282 13.2238 26.5524 13.3996C26.3766 13.5754 26.2778 13.8139 26.2778 14.0625V25.3125C26.2778 25.5611 26.1791 25.7996 26.0032 25.9754C25.8274 26.1512 25.589 26.25 25.3403 26.25H4.71533C4.46669 26.25 4.22823 26.1512 4.05242 25.9754C3.8766 25.7996 3.77783 25.5611 3.77783 25.3125V4.6875C3.77783 4.43886 3.8766 4.2004 4.05242 4.02459C4.22823 3.84877 4.46669 3.75 4.71533 3.75H16.9028C17.1515 3.75 17.3899 3.65123 17.5657 3.47541C17.7416 3.2996 17.8403 3.06114 17.8403 2.8125C17.8403 2.56386 17.7416 2.3254 17.5657 2.14959C17.3899 1.97377 17.1515 1.875 16.9028 1.875H4.71533C3.96941 1.875 3.25404 2.17132 2.72659 2.69876C2.19915 3.22621 1.90283 3.94158 1.90283 4.6875V25.3125Z" fill="white"/>
</svg>
